<svg width="10" height="16" viewBox="0 0 10 16" fill="none" xmlns="http://www.w3.org/2000/svg">
<path d="M5.69771 0.692633L5.69771 13.6354L8.80899 10.5471C9.08137 10.2765 9.52324 10.2765 9.79559 10.5471C10.0681 10.8176 10.0681 11.2562 9.79559 11.5264L5.49338 15.7971C5.22099 16.0676 4.77909 16.0676 4.50678 15.7971L0.204371 11.5264C0.0680561 11.3912 0 11.2139 0 11.0367C0 10.8595 0.0680561 10.6823 0.204371 10.5471C0.47676 10.2765 0.918627 10.2765 1.19093 10.5471L4.30237 13.6354L4.30237 0.692633C4.30237 0.310157 4.61477 0 5.00006 0C5.38535 0 5.69771 0.310117 5.69771 0.692633Z" fill="#333333"/>
</svg>
