<svg width="32" height="32" viewBox="0 0 32 32" fill="none" xmlns="http://www.w3.org/2000/svg">
<path fill-rule="evenodd" clip-rule="evenodd" d="M27.3588 12.4444H30.3526C31.261 12.4444 32 13.1834 32 14.0919V17.9081C32 18.8166 31.261 19.5556 30.3526 19.5556H27.3588C26.8776 19.5556 26.48 19.8204 26.2963 20.2649C26.1126 20.7093 26.2056 21.1775 26.5452 21.5176L28.6619 23.6338C28.973 23.9455 29.1443 24.3591 29.1443 24.7988C29.1443 25.2391 28.973 25.6533 28.6619 25.9644L25.9639 28.6625C25.3416 29.2847 24.2566 29.2859 23.6332 28.6625L21.517 26.5458C21.1769 26.2062 20.7093 26.112 20.2643 26.2969C19.8199 26.4812 19.555 26.8776 19.555 27.3588V30.3526C19.555 31.261 18.816 32 17.9076 32H14.0919C13.1834 32 12.4444 31.261 12.4444 30.3526V27.3588C12.4444 26.8776 12.1796 26.4812 11.7351 26.2969C11.2901 26.1126 10.8225 26.2062 10.4824 26.5458L8.36622 28.6625C7.74282 29.2865 6.65837 29.2853 6.03556 28.6625L3.33748 25.9644C3.02637 25.6527 2.85511 25.2391 2.85511 24.7988C2.85511 24.3591 3.02637 23.9449 3.33748 23.6338L5.45422 21.5176C5.79378 21.1775 5.88741 20.7093 5.70311 20.2649C5.51882 19.8204 5.12237 19.5556 4.64119 19.5556H1.64741C0.738963 19.5556 0 18.8166 0 17.9076V14.0919C0 13.1834 0.738963 12.4444 1.64741 12.4444H4.64119C5.12237 12.4444 5.51941 12.1796 5.70311 11.7351C5.88682 11.2907 5.79378 10.8225 5.45422 10.4824L3.33748 8.36622C3.02637 8.05452 2.85511 7.64089 2.85511 7.20119C2.85511 6.76089 3.02637 6.34667 3.33748 6.03556L6.03556 3.33748C6.65778 2.71526 7.74282 2.71407 8.36622 3.33748L10.4824 5.45363C10.8225 5.79319 11.2919 5.88859 11.7351 5.70311C12.1796 5.51882 12.4444 5.12237 12.4444 4.64119V1.64741C12.4444 0.738963 13.1834 0 14.0919 0H17.9081C18.8166 0 19.5556 0.738963 19.5556 1.64741V4.64119C19.5556 5.12237 19.8204 5.51882 20.2649 5.70311C20.7081 5.888 21.1775 5.79319 21.5176 5.45363L23.6338 3.33748C24.2572 2.71407 25.3422 2.71526 25.9644 3.33748L28.6625 6.03556C28.9736 6.34726 29.1449 6.76089 29.1449 7.20119C29.1449 7.64089 28.9736 8.05511 28.6625 8.36622L26.5458 10.4824C26.2062 10.8225 26.1126 11.2907 26.2969 11.7351C26.4812 12.1796 26.8776 12.4444 27.3588 12.4444ZM30.3526 18.3704C30.6074 18.3704 30.8148 18.163 30.8148 17.9081V14.0919C30.8148 13.837 30.6074 13.6296 30.3526 13.6302H27.3588C26.3964 13.6302 25.5698 13.0779 25.2018 12.189C24.8332 11.3001 25.0276 10.3247 25.7079 9.64444L27.8246 7.5283C28.0053 7.34815 28.0053 7.05481 27.8246 6.87407L25.1265 4.176C24.947 3.99526 24.6536 3.99526 24.4723 4.176L22.3561 6.29215C21.6759 6.97244 20.7016 7.16681 19.8116 6.79822C18.9227 6.43022 18.3704 5.60356 18.3704 4.64119V1.64741C18.3704 1.39259 18.163 1.18519 17.9076 1.18519H14.0919C13.837 1.18519 13.6296 1.39259 13.6296 1.64741V4.64119C13.6296 5.60356 13.0773 6.43022 12.1884 6.79763C11.2984 7.16622 10.3236 6.97126 9.64385 6.29156L7.5277 4.17541C7.34696 3.99467 7.05363 3.99467 6.87348 4.17541L4.17541 6.87348C3.99467 7.05363 3.99467 7.34696 4.17541 7.5277L6.29215 9.64385C6.97304 10.3241 7.16681 11.2996 6.79822 12.1884C6.43022 13.0773 5.60356 13.6296 4.64119 13.6296H1.64741C1.39259 13.6296 1.18519 13.837 1.18519 14.0919V17.9081C1.18519 18.163 1.39259 18.3704 1.64741 18.3704H4.64119C5.60356 18.3704 6.43022 18.9227 6.79822 19.811C7.16681 20.6999 6.97244 21.6753 6.29215 22.3556L4.17541 24.4717C3.99467 24.6519 3.99467 24.9452 4.17541 25.1259L6.87348 27.824C7.05304 28.0041 7.34637 28.0053 7.5277 27.824L9.64385 25.7073C10.0966 25.2545 10.6791 25.0175 11.28 25.0175C11.5834 25.0175 11.8904 25.0779 12.1884 25.2018C13.0773 25.5698 13.6296 26.3964 13.6296 27.3588V30.3526C13.6296 30.6074 13.837 30.8148 14.0919 30.8148H17.9081C18.163 30.8148 18.3704 30.6074 18.3704 30.3526V27.3588C18.3704 26.3964 18.9227 25.5698 19.8116 25.2018C20.7004 24.8344 21.6753 25.027 22.3561 25.7079L24.4723 27.8246C24.653 28.0059 24.9464 28.0047 25.1265 27.8246L27.8246 25.1265C28.0053 24.9464 28.0053 24.653 27.8246 24.4723L25.7079 22.3561C25.027 21.6759 24.8332 20.7004 25.2018 19.8116C25.5698 18.9227 26.3964 18.3704 27.3588 18.3704H30.3526ZM16 10.6667C13.059 10.6667 10.6667 13.059 10.6667 16C10.6667 18.941 13.059 21.3333 16 21.3333C18.941 21.3333 21.3333 18.941 21.3333 16C21.3333 13.059 18.941 10.6667 16 10.6667ZM11.8519 16C11.8519 18.2868 13.7132 20.1481 16 20.1481C18.2868 20.1481 20.1481 18.2868 20.1481 16C20.1481 13.7132 18.2868 11.8519 16 11.8519C13.7132 11.8519 11.8519 13.7132 11.8519 16Z" fill="white"/>
</svg>
