<svg width="32" height="32" viewBox="0 0 32 32" fill="none" xmlns="http://www.w3.org/2000/svg">
<path fill-rule="evenodd" clip-rule="evenodd" d="M31.824 14.6016L15.9998 0L0.176109 14.6016C-0.0467902 14.8078 -0.0600317 15.1548 0.147419 15.3769C0.353767 15.5984 0.704116 15.611 0.927016 15.4054L2.75821 13.7156V32H11.5859H20.4136H29.2413V13.7151L31.0725 15.4048C31.1784 15.503 31.3136 15.5512 31.4482 15.5512C31.5967 15.5512 31.744 15.4926 31.8521 15.3763C32.0601 15.1548 32.0469 14.8078 31.824 14.6016ZM12.6894 30.9035V22.1311C12.6894 20.3168 14.1741 18.8414 15.9998 18.8414C17.8254 18.8414 19.3102 20.3168 19.3102 22.1311V30.9035H12.6894ZM20.4136 30.9035H28.1379V12.6969L15.9998 1.49624L3.86167 12.6969V30.9035H11.5859V22.1311C11.5859 19.7126 13.5661 17.7449 15.9998 17.7449C18.4335 17.7449 20.4136 19.7126 20.4136 22.1311V30.9035Z" fill="white"/>
</svg>
