<svg width="36" height="36" viewBox="0 0 36 36" fill="none" xmlns="http://www.w3.org/2000/svg">
<path fill-rule="evenodd" clip-rule="evenodd" d="M36 10.5389L29.6743 14.2651L36 17.9683L29.6743 21.6944L36 25.3976L18.0003 36L0 25.3976L6.3257 21.6944L0 17.9683L6.3257 14.2651L0 10.5389L18.0003 0L36 10.5389ZM33.3527 10.5423L18.0003 1.55341L2.64728 10.5423L18.0003 19.5858L33.3527 10.5423ZM7.64835 15.0438L18.0003 21.1413L28.3523 15.0438L33.3527 17.9716L18.0003 27.0152L2.64728 17.9716L7.64835 15.0438ZM18.0003 34.4446L33.3527 25.401L28.3523 22.4732L18.0003 28.5706L7.64835 22.4732L2.64728 25.401L18.0003 34.4446Z" fill="white"/>
</svg>
