<svg width="171" height="122" viewBox="0 0 171 122" fill="none" xmlns="http://www.w3.org/2000/svg">
<g clip-path="url(#clip0)">
<path opacity="0.8" d="M117.692 121.416C144.898 121.416 166.953 99.3611 166.953 72.1552C166.953 44.9493 144.898 22.8946 117.692 22.8946C90.4864 22.8946 68.4316 44.9493 68.4316 72.1552C68.4316 99.3611 90.4864 121.416 117.692 121.416Z" fill="white"/>
<path d="M158.643 29.9905H113.092C111.193 29.9905 109.654 31.5295 109.654 33.4279V105.428C109.654 107.326 111.193 108.865 113.092 108.865H158.643C160.542 108.865 162.081 107.326 162.081 105.428V33.4279C162.081 31.5295 160.542 29.9905 158.643 29.9905Z" fill="#005ED0"/>
<path d="M158.708 33.7365H113.688V105.658H158.708V33.7365Z" fill="#63BBFB"/>
<path d="M149.058 29.9896C148.942 29.3575 148.338 28.0848 147.785 27.7561C146.79 27.1577 144.197 27.6578 143.186 27.0875C141.225 25.9805 141.149 21.3984 136.199 21.3984C131.35 21.3984 131.159 26.2222 129.035 27.0537C127.936 27.4808 125.374 27.3291 124.433 28.037C123.989 28.3686 123.478 29.4446 123.38 29.9896C123.141 31.3072 123.38 35.3415 123.38 35.3415H149.058C149.058 35.3415 149.296 31.3072 149.058 29.9896ZM136.188 27.3853C135.836 27.3847 135.491 27.2798 135.199 27.0837C134.906 26.8877 134.679 26.6093 134.544 26.2838C134.41 25.9582 134.375 25.6002 134.444 25.2549C134.513 24.9095 134.683 24.5924 134.932 24.3436C135.181 24.0948 135.499 23.9254 135.844 23.8569C136.19 23.7884 136.547 23.8239 136.873 23.9588C137.198 24.0937 137.476 24.322 137.672 24.6148C137.867 24.9077 137.972 25.2519 137.972 25.6041C137.972 25.8382 137.925 26.07 137.836 26.2863C137.746 26.5025 137.615 26.699 137.449 26.8644C137.283 27.0298 137.087 27.161 136.87 27.2503C136.654 27.3397 136.422 27.3855 136.188 27.3853Z" fill="#A4C5FF"/>
<path d="M128.531 40.7587H119.232C118.96 40.7587 118.74 40.9788 118.74 41.2503V41.2971C118.74 41.5687 118.96 41.7888 119.232 41.7888H128.531C128.803 41.7888 129.023 41.5687 129.023 41.2971V41.2503C129.023 40.9788 128.803 40.7587 128.531 40.7587Z" fill="#C1D8FA"/>
<path d="M154.345 47.6665H147.269C146.941 47.6662 146.626 47.5356 146.394 47.3035C146.162 47.0715 146.032 46.7568 146.031 46.4286V39.3524C146.032 39.0242 146.162 38.7095 146.394 38.4775C146.626 38.2454 146.941 38.1149 147.269 38.1145H154.345C154.674 38.1149 154.988 38.2454 155.22 38.4775C155.452 38.7095 155.583 39.0242 155.583 39.3524V46.4286C155.583 46.7568 155.452 47.0715 155.22 47.3035C154.988 47.5356 154.674 47.6662 154.345 47.6665ZM147.269 38.9573C147.164 38.9574 147.064 38.9991 146.99 39.0732C146.916 39.1472 146.874 39.2477 146.874 39.3524V46.4286C146.874 46.5334 146.916 46.6338 146.99 46.7078C147.064 46.7819 147.164 46.8236 147.269 46.8237H154.345C154.45 46.8236 154.551 46.7819 154.625 46.7078C154.699 46.6338 154.74 46.5334 154.74 46.4286V39.3524C154.74 39.2477 154.699 39.1472 154.625 39.0732C154.551 38.9991 154.45 38.9574 154.345 38.9573H147.269Z" fill="#C1D8FA"/>
<path d="M150.906 43.5993L149.03 41.7236C148.829 41.5225 148.503 41.5225 148.302 41.7236C148.101 41.9248 148.101 42.2509 148.302 42.452L150.177 44.3277C150.379 44.5288 150.705 44.5288 150.906 44.3277C151.107 44.1265 151.107 43.8004 150.906 43.5993Z" fill="#C1D8FA"/>
<path d="M150.957 44.2524L156.637 38.5727C156.879 38.33 156.879 37.9364 156.637 37.6936C156.394 37.4509 156 37.4509 155.758 37.6936L150.078 43.3733C149.835 43.616 149.835 44.0096 150.078 44.2524C150.321 44.4951 150.714 44.4951 150.957 44.2524Z" fill="#C1D8FA"/>
<path d="M154.064 60.8006H146.988C146.66 60.8002 146.345 60.6697 146.113 60.4376C145.881 60.2055 145.75 59.8909 145.75 59.5627V52.4864C145.75 52.1582 145.881 51.8436 146.113 51.6115C146.345 51.3794 146.66 51.2489 146.988 51.2485H154.064C154.392 51.2489 154.707 51.3794 154.939 51.6115C155.171 51.8436 155.302 52.1582 155.302 52.4864V59.5627C155.302 59.8909 155.171 60.2055 154.939 60.4376C154.707 60.6697 154.392 60.8002 154.064 60.8006ZM146.988 52.0914C146.883 52.0915 146.783 52.1331 146.709 52.2072C146.635 52.2813 146.593 52.3817 146.593 52.4864V59.5627C146.593 59.6674 146.635 59.7678 146.709 59.8419C146.783 59.916 146.883 59.9576 146.988 59.9577H154.064C154.169 59.9576 154.269 59.916 154.343 59.8419C154.417 59.7678 154.459 59.6674 154.459 59.5627V52.4864C154.459 52.3817 154.417 52.2813 154.343 52.2072C154.269 52.1331 154.169 52.0915 154.064 52.0914H146.988Z" fill="#C1D8FA"/>
<path d="M150.625 56.7333L148.749 54.8577C148.548 54.6565 148.222 54.6565 148.021 54.8577C147.819 55.0588 147.819 55.3849 148.021 55.5861L149.896 57.4617C150.097 57.6629 150.423 57.6629 150.625 57.4617C150.826 57.2606 150.826 56.9345 150.625 56.7333Z" fill="#C1D8FA"/>
<path d="M150.676 57.3864L156.355 51.7067C156.598 51.464 156.598 51.0704 156.355 50.8277C156.113 50.5849 155.719 50.5849 155.476 50.8277L149.797 56.5073C149.554 56.7501 149.554 57.1437 149.797 57.3864C150.039 57.6292 150.433 57.6291 150.676 57.3864Z" fill="#C1D8FA"/>
<path d="M154.064 74.9848H146.988C146.66 74.9844 146.345 74.8539 146.113 74.6218C145.881 74.3897 145.75 74.0751 145.75 73.7469V66.6706C145.75 66.3424 145.881 66.0278 146.113 65.7957C146.345 65.5636 146.66 65.4331 146.988 65.4327H154.064C154.392 65.4331 154.707 65.5636 154.939 65.7957C155.171 66.0278 155.302 66.3424 155.302 66.6706V73.7469C155.302 74.0751 155.171 74.3897 154.939 74.6218C154.707 74.8539 154.392 74.9844 154.064 74.9848ZM146.988 66.2756C146.883 66.2757 146.783 66.3174 146.709 66.3914C146.635 66.4655 146.593 66.5659 146.593 66.6706V73.7469C146.593 73.8516 146.635 73.952 146.709 74.0261C146.783 74.1002 146.883 74.1418 146.988 74.1419H154.064C154.169 74.1418 154.269 74.1002 154.343 74.0261C154.417 73.952 154.459 73.8516 154.459 73.7469V66.6706C154.459 66.5659 154.417 66.4655 154.343 66.3914C154.269 66.3173 154.169 66.2757 154.064 66.2756H146.988V66.2756Z" fill="#C1D8FA"/>
<path d="M150.625 70.9176L148.749 69.0419C148.548 68.8408 148.222 68.8408 148.021 69.0419C147.819 69.2431 147.819 69.5692 148.021 69.7703L149.896 71.646C150.097 71.8471 150.423 71.8471 150.625 71.646C150.826 71.4449 150.826 71.1187 150.625 70.9176Z" fill="#C1D8FA"/>
<path d="M150.676 71.5707L156.355 65.891C156.598 65.6483 156.598 65.2547 156.355 65.0119C156.113 64.7692 155.719 64.7692 155.476 65.0119L149.797 70.6916C149.554 70.9343 149.554 71.3279 149.797 71.5707C150.039 71.8134 150.433 71.8134 150.676 71.5707Z" fill="#C1D8FA"/>
<path d="M154.064 89.2361H146.988C146.66 89.2357 146.345 89.1052 146.113 88.8731C145.881 88.641 145.75 88.3264 145.75 87.9982V80.9222C145.75 80.594 145.881 80.2793 146.113 80.0472C146.345 79.815 146.66 79.6844 146.988 79.684H154.064C154.392 79.6844 154.707 79.815 154.939 80.0472C155.171 80.2793 155.302 80.594 155.302 80.9222V87.9982C155.302 88.3264 155.171 88.641 154.939 88.8731C154.707 89.1052 154.392 89.2357 154.064 89.2361ZM146.988 80.5268C146.883 80.527 146.783 80.5687 146.709 80.6428C146.635 80.7169 146.593 80.8174 146.593 80.9222V87.9982C146.593 88.1029 146.635 88.2033 146.709 88.2774C146.783 88.3514 146.883 88.3931 146.988 88.3932H154.064C154.169 88.3931 154.269 88.3514 154.343 88.2774C154.417 88.2033 154.459 88.1029 154.459 87.9982V80.9222C154.459 80.8174 154.418 80.7169 154.343 80.6428C154.269 80.5687 154.169 80.527 154.064 80.5268H146.988Z" fill="#C1D8FA"/>
<path d="M150.625 85.1689L148.749 83.2933C148.548 83.0921 148.222 83.0921 148.021 83.2933C147.819 83.4944 147.819 83.8205 148.021 84.0217L149.896 85.8973C150.097 86.0985 150.423 86.0985 150.625 85.8973C150.826 85.6962 150.826 85.3701 150.625 85.1689Z" fill="#C1D8FA"/>
<path d="M150.676 85.822L156.355 80.1424C156.598 79.8996 156.598 79.506 156.355 79.2633C156.113 79.0205 155.719 79.0205 155.476 79.2633L149.797 84.9429C149.554 85.1857 149.554 85.5793 149.797 85.822C150.039 86.0648 150.433 86.0648 150.676 85.822Z" fill="#C1D8FA"/>
<path d="M154.064 103.434H146.988C146.66 103.433 146.345 103.303 146.113 103.071C145.881 102.838 145.75 102.524 145.75 102.196V95.1194C145.75 94.7912 145.881 94.4765 146.113 94.2444C146.345 94.0124 146.66 93.8818 146.988 93.8815H154.064C154.392 93.8818 154.707 94.0124 154.939 94.2444C155.171 94.4765 155.302 94.7912 155.302 95.1194V102.196C155.302 102.524 155.171 102.838 154.939 103.071C154.707 103.303 154.392 103.433 154.064 103.434ZM146.988 94.7243C146.883 94.7244 146.783 94.7661 146.709 94.8401C146.635 94.9142 146.593 95.0146 146.593 95.1194V102.196C146.593 102.3 146.635 102.401 146.709 102.475C146.783 102.549 146.883 102.591 146.988 102.591H154.064C154.169 102.591 154.269 102.549 154.343 102.475C154.417 102.401 154.459 102.3 154.459 102.196V95.1194C154.459 95.0146 154.417 94.9142 154.343 94.8401C154.269 94.7661 154.169 94.7244 154.064 94.7243H146.988Z" fill="#C1D8FA"/>
<path d="M150.625 99.3663L148.749 97.4906C148.548 97.2895 148.222 97.2895 148.021 97.4906C147.819 97.6918 147.819 98.0179 148.021 98.219L149.896 100.095C150.097 100.296 150.423 100.296 150.625 100.095C150.826 99.8935 150.826 99.5674 150.625 99.3663Z" fill="#C1D8FA"/>
<path d="M150.676 100.019L156.355 94.3397C156.598 94.0969 156.598 93.7034 156.355 93.4606C156.113 93.2179 155.719 93.2179 155.476 93.4606L149.797 99.1403C149.554 99.383 149.554 99.7766 149.797 100.019C150.039 100.262 150.433 100.262 150.676 100.019Z" fill="#C1D8FA"/>
<path d="M136.093 44.6919H119.255C118.971 44.6919 118.74 44.9225 118.74 45.207C118.74 45.4914 118.971 45.722 119.255 45.722H136.093C136.378 45.722 136.608 45.4914 136.608 45.207C136.608 44.9225 136.378 44.6919 136.093 44.6919Z" fill="#C1D8FA"/>
<path d="M137.793 101.022H120.955C120.67 101.022 120.439 101.253 120.439 101.537C120.439 101.822 120.67 102.052 120.955 102.052H137.793C138.077 102.052 138.308 101.822 138.308 101.537C138.308 101.253 138.077 101.022 137.793 101.022Z" fill="#C1D8FA"/>
<path d="M127.664 107.695C127.663 108.006 127.54 108.303 127.32 108.522C127.1 108.741 126.803 108.864 126.492 108.864H114.856C114.545 108.864 114.248 108.741 114.028 108.521C113.809 108.302 113.686 108.004 113.686 107.694C113.686 107.384 113.809 107.086 114.028 106.867C114.248 106.647 114.545 106.524 114.856 106.524H123.099L120.851 98.6097H125.043L127.484 107.072L127.664 107.695Z" fill="#005ED0" stroke="#63BBFB" stroke-width="0.25" stroke-miterlimit="10"/>
<path d="M120.852 98.6098L123.099 106.524H114.856H107.156L104.979 98.6098H120.852Z" fill="#2C5999"/>
<path d="M107.155 106.524H114.856C114.546 106.524 114.248 106.647 114.029 106.867C113.809 107.086 113.686 107.384 113.686 107.694C113.686 108.004 113.809 108.302 114.029 108.521C114.248 108.741 114.546 108.864 114.856 108.864H99.008C98.6977 108.864 98.4 108.741 98.1806 108.521C97.9612 108.302 97.8379 108.004 97.8379 107.694C97.8379 107.384 97.9612 107.086 98.1806 106.867C98.4 106.647 98.6977 106.524 99.008 106.524H107.155Z" fill="#63BBFB" stroke="#63BBFB" stroke-width="0.25" stroke-miterlimit="10"/>
<path d="M107.155 106.524L104.978 98.6097H120.851L123.099 106.524H114.856C114.546 106.524 114.248 106.647 114.029 106.867C113.809 107.086 113.686 107.384 113.686 107.694C113.686 108.004 113.809 108.302 114.029 108.521C114.248 108.741 114.546 108.864 114.856 108.864H99.008C98.6977 108.864 98.4 108.741 98.1806 108.521C97.9612 108.302 97.8379 108.004 97.8379 107.694C97.8379 107.384 97.9612 107.086 98.1806 106.867C98.4 106.647 98.6977 106.524 99.008 106.524H107.155Z" stroke="#63BBFB" stroke-width="0.25" stroke-miterlimit="10"/>
<path d="M114.857 106.524H107.156" stroke="#63BBFB" stroke-width="0.25" stroke-miterlimit="10"/>
<path d="M143.714 98.9843H81.2911C78.7532 98.9843 77.0495 97.0005 77.2527 94.5759L80.2703 56.1251C80.4736 53.7005 82.7164 51.7167 85.2543 51.7167H147.677C150.215 51.7167 152.125 53.7005 151.922 56.1251L148.698 94.5759C148.495 97.0005 146.252 98.9843 143.714 98.9843Z" fill="#005ED0" stroke="#63BBFB" stroke-width="0.25" stroke-miterlimit="10"/>
<path d="M141.173 98.9843H81.3225C80.7563 98.993 80.1947 98.8822 79.6743 98.6591C79.1539 98.436 78.6864 98.1057 78.3023 97.6897C77.9182 97.2736 77.6262 96.7813 77.4453 96.2447C77.2645 95.7082 77.1988 95.1395 77.2526 94.5759L80.3437 56.1251C80.4613 54.9322 81.013 53.8241 81.894 53.0114C82.775 52.1986 83.9239 51.7379 85.1224 51.7167H144.973C145.539 51.708 146.1 51.8188 146.621 52.0419C147.141 52.265 147.609 52.5953 147.993 53.0113C148.377 53.4273 148.669 53.9197 148.85 54.4562C149.031 54.9928 149.096 55.5614 149.042 56.1251L145.951 94.5759C145.834 95.7687 145.282 96.8769 144.401 97.6896C143.52 98.5024 142.371 98.9631 141.173 98.9843Z" fill="#63BBFB" stroke="#63BBFB" stroke-width="0.25" stroke-miterlimit="10"/>
<path d="M142.878 93.7324H80.8398L84.0856 54.7008H146.123L142.878 93.7324Z" fill="white"/>
<path opacity="0.99" d="M86.8679 80.1474C87.2599 80.1474 87.5776 79.8318 87.5776 79.4424C87.5776 79.0531 87.2599 78.7374 86.8679 78.7374C86.4759 78.7374 86.1582 79.0531 86.1582 79.4424C86.1582 79.8318 86.4759 80.1474 86.8679 80.1474Z" fill="#0362CD"/>
<path opacity="0.99" d="M86.3562 84.6533C86.7481 84.6533 87.0659 84.3377 87.0659 83.9483C87.0659 83.559 86.7481 83.2433 86.3562 83.2433C85.9642 83.2433 85.6465 83.559 85.6465 83.9483C85.6465 84.3377 85.9642 84.6533 86.3562 84.6533Z" fill="#0362CD"/>
<path opacity="0.99" d="M85.8757 89.0101C86.2677 89.0101 86.5854 88.6944 86.5854 88.3051C86.5854 87.9157 86.2677 87.6001 85.8757 87.6001C85.4838 87.6001 85.166 87.9157 85.166 88.3051C85.166 88.6944 85.4838 89.0101 85.8757 89.0101Z" fill="#0362CD"/>
<path d="M94.2246 87.6001H89.2812C88.8918 87.6001 88.5762 87.9157 88.5762 88.3051C88.5762 88.6944 88.8918 89.0101 89.2812 89.0101H94.2246C94.614 89.0101 94.9296 88.6944 94.9296 88.3051C94.9296 87.9157 94.614 87.6001 94.2246 87.6001Z" fill="#0362CD"/>
<path d="M133.658 57.4761H88.1849C87.8487 57.4761 87.5762 57.7486 87.5762 58.0848V58.0848C87.5762 58.421 87.8487 58.6935 88.1849 58.6935H133.658C133.994 58.6935 134.267 58.421 134.267 58.0848C134.267 57.7486 133.994 57.4761 133.658 57.4761Z" fill="#005ED0"/>
<path d="M122.138 61.0814H87.4739C87.1378 61.0814 86.8652 61.3539 86.8652 61.6901V61.6901C86.8652 62.0263 87.1378 62.2988 87.4739 62.2988H122.138C122.474 62.2988 122.747 62.0263 122.747 61.6901C122.747 61.3539 122.474 61.0814 122.138 61.0814Z" fill="#63BBFB"/>
<path d="M121.671 64.4996H97.636C97.2999 64.4996 97.0273 64.7721 97.0273 65.1083V65.1083C97.0273 65.4445 97.2999 65.717 97.636 65.717H121.671C122.007 65.717 122.28 65.4445 122.28 65.1083C122.28 64.7721 122.007 64.4996 121.671 64.4996Z" fill="#005ED0"/>
<path d="M139.715 81.1548L138.95 90.8136H95.1094L95.2049 83.4051C96.2303 82.5061 100.582 79.0786 104.661 77.2609C110.581 74.6257 116.281 74.2886 121.642 76.2495C121.63 76.3418 121.625 76.4347 121.625 76.5277C121.625 77.0447 121.781 77.5496 122.073 77.9764C122.365 78.4032 122.778 78.732 123.26 78.9199C123.742 79.1078 124.269 79.1459 124.773 79.0294C125.276 78.9128 125.733 78.647 126.083 78.2667C134 81.8993 137.855 81.8768 139.715 81.1548Z" fill="#BFD8FF"/>
<path d="M140.98 80.09C140.98 80.1666 140.964 80.2424 140.933 80.3125C140.902 80.3826 140.857 80.4455 140.801 80.4974C140.483 80.7834 140.114 81.0065 139.713 81.1548C137.854 81.8768 133.999 81.8993 126.082 78.2667C126.34 77.9861 126.532 77.6524 126.647 77.289C134.544 80.8991 137.949 80.635 139.306 80.1069C139.578 80.0083 139.828 79.8596 140.045 79.6686C140.121 79.5992 140.215 79.5527 140.316 79.5343C140.418 79.5159 140.522 79.5264 140.618 79.5646C140.725 79.605 140.816 79.6769 140.881 79.7708C140.946 79.8646 140.981 79.976 140.98 80.09Z" fill="#005ED0"/>
<path d="M126.764 76.5276C126.765 76.7858 126.726 77.0426 126.649 77.289C126.312 77.1373 125.966 76.9743 125.612 76.8086C125.631 76.7162 125.641 76.622 125.64 76.5276C125.641 76.2294 125.549 75.9383 125.378 75.6943C125.206 75.4503 124.963 75.2654 124.682 75.165C124.402 75.0647 124.097 75.0537 123.809 75.1337C123.522 75.2137 123.266 75.3807 123.078 75.6118C122.721 75.4601 122.362 75.3196 122.002 75.1876C122.294 74.7093 122.734 74.3396 123.256 74.1348C123.777 73.93 124.351 73.9013 124.891 74.0531C125.43 74.2049 125.905 74.5288 126.243 74.9756C126.581 75.4223 126.764 75.9673 126.764 76.5276Z" fill="#005ED0"/>
<path d="M126.649 77.289C126.535 77.6524 126.342 77.9862 126.084 78.2667C125.722 78.1009 125.351 77.9267 124.969 77.7441C125.134 77.6407 125.277 77.5043 125.388 77.3433C125.498 77.1824 125.575 77.0003 125.612 76.8086C125.966 76.9744 126.312 77.1373 126.649 77.289Z" fill="#005ED0"/>
<path d="M124.968 77.7441C125.35 77.9267 125.721 78.1009 126.084 78.2667C125.733 78.647 125.277 78.9128 124.773 79.0293C124.269 79.1459 123.742 79.1077 123.26 78.9198C122.779 78.732 122.365 78.4032 122.073 77.9764C121.781 77.5496 121.625 77.0446 121.625 76.5276C121.625 76.4347 121.63 76.3418 121.642 76.2495C122.016 76.3872 122.389 76.5361 122.76 76.6962C122.801 77.048 122.97 77.3724 123.235 77.6076C123.499 77.8428 123.841 77.9724 124.196 77.9717C124.47 77.9717 124.738 77.8927 124.968 77.7441Z" fill="#005ED0"/>
<path d="M123.076 75.6118C122.863 75.8696 122.747 76.1934 122.748 76.5277C122.747 76.5841 122.751 76.6404 122.759 76.6962C122.388 76.5361 122.014 76.3872 121.641 76.2495C121.679 75.873 121.802 75.5099 122 75.1876C122.36 75.3196 122.719 75.4601 123.076 75.6118Z" fill="#005ED0"/>
<path d="M95.1567 82.877L95.0977 83.0062C94.8758 82.7758 95.6146 81.7672 95.8534 81.5565C98.3511 79.3906 101.153 77.6026 104.169 76.2495C110.277 73.5216 116.39 73.1676 122.001 75.1876C121.802 75.51 121.679 75.873 121.641 76.2495C116.281 74.2886 110.58 74.6257 104.661 77.2609C100.582 79.0786 96.2299 82.5061 95.2045 83.4051C94.9797 83.6046 95.3646 83.0905 95.1567 82.877Z" fill="#005ED0"/>
<path d="M170.43 109H14.5699C14.2551 109 14 109.448 14 110C14 110.552 14.2551 111 14.5699 111H170.43C170.745 111 171 110.552 171 110C171 109.448 170.745 109 170.43 109Z" fill="#005ED0" stroke="#63BBFB" stroke-width="0.25" stroke-miterlimit="10"/>
<path d="M20.5241 105.658H91.3191V107.282C91.3191 107.49 91.2781 107.696 91.1986 107.888C91.1191 108.08 91.0025 108.254 90.8555 108.401C90.7085 108.548 90.5341 108.665 90.342 108.745C90.15 108.824 89.9442 108.865 89.7363 108.865H20.5241C20.1044 108.865 19.7018 108.698 19.405 108.401C19.1082 108.105 18.9414 107.702 18.9414 107.282V107.24C18.9414 106.821 19.1082 106.418 19.405 106.121C19.7018 105.824 20.1044 105.658 20.5241 105.658Z" fill="#63BBFB" stroke="#63BBFB" stroke-width="0.25" stroke-miterlimit="10"/>
<path d="M69.4126 105.658H91.318V107.324C91.318 107.732 91.1556 108.124 90.8666 108.414C90.5775 108.703 90.1854 108.865 89.7766 108.865H69.4126C69.0037 108.865 68.6117 108.703 68.3226 108.414C68.0335 108.124 67.8711 107.732 67.8711 107.324V107.199C67.8711 106.79 68.0335 106.398 68.3226 106.109C68.6117 105.82 69.0037 105.658 69.4126 105.658Z" fill="#005ED0" stroke="#63BBFB" stroke-width="0.25" stroke-miterlimit="10"/>
<path d="M90.2768 105.658H41.6269C39.649 105.658 38.3212 104.101 38.4796 102.199L40.8313 72.0319C40.9898 70.1296 42.7378 68.5732 44.7157 68.5732H93.3656C95.3435 68.5732 96.8322 70.1296 96.6738 72.0319L94.1612 102.199C94.0027 104.101 92.2547 105.658 90.2768 105.658Z" fill="#005ED0" stroke="#63BBFB" stroke-width="0.25" stroke-miterlimit="10"/>
<path d="M88.2967 105.658H41.6519C41.2091 105.663 40.7702 105.574 40.3638 105.399C39.9574 105.223 39.5927 104.963 39.2934 104.637C38.9941 104.31 38.7669 103.925 38.6268 103.505C38.4866 103.084 38.4366 102.64 38.48 102.199L40.8891 72.0319C40.9776 71.0989 41.4059 70.231 42.0926 69.5933C42.7793 68.9556 43.6764 68.5925 44.6134 68.5732H91.2582C91.701 68.568 92.1399 68.6563 92.5463 68.8322C92.9527 69.0081 93.3174 69.2677 93.6167 69.594C93.916 69.9204 94.1431 70.3062 94.2833 70.7262C94.4234 71.1463 94.4734 71.5912 94.4301 72.0319L92.021 102.199C91.9325 103.132 91.5042 104 90.8175 104.637C90.1308 105.275 89.2336 105.638 88.2967 105.658Z" fill="#63BBFB" stroke="#63BBFB" stroke-width="0.25" stroke-miterlimit="10"/>
<path d="M89.6252 101.537H41.2754L43.8047 70.9146H92.1545L89.6252 101.537Z" fill="white"/>
<path d="M55.0862 81.8711H51.7812L52.1236 78.5308C53.8502 78.5075 55.2329 79.7419 55.129 81.5614C55.1258 81.6173 55.0862 81.8711 55.0862 81.8711Z" fill="#02FDFD"/>
<path d="M50.5125 82.9949H54.9226C54.7357 84.112 54.1628 85.1281 53.3038 85.8663C52.4448 86.6045 51.3541 87.018 50.2216 87.0348C49.6751 87.0514 49.1315 86.9504 48.6276 86.7386C48.1236 86.5268 47.671 86.2091 47.3006 85.8071C46.9301 85.4052 46.6503 84.9282 46.4803 84.4087C46.3102 83.8892 46.2538 83.3391 46.3149 82.7959C46.4521 81.6511 46.9941 80.593 47.843 79.8127C48.6919 79.0324 49.7917 78.5813 50.9441 78.5408L50.5125 82.9949Z" fill="#02DAD8"/>
<path opacity="0.99" d="M45.973 90.8789C46.2785 90.8789 46.5261 90.6312 46.5261 90.3258C46.5261 90.0203 46.2785 89.7726 45.973 89.7726C45.6676 89.7726 45.4199 90.0203 45.4199 90.3258C45.4199 90.6312 45.6676 90.8789 45.973 90.8789Z" fill="#63BBFB"/>
<path opacity="0.99" d="M45.5746 94.4141C45.8801 94.4141 46.1277 94.1664 46.1277 93.861C46.1277 93.5555 45.8801 93.3079 45.5746 93.3079C45.2691 93.3079 45.0215 93.5555 45.0215 93.861C45.0215 94.1664 45.2691 94.4141 45.5746 94.4141Z" fill="#63BBFB"/>
<path opacity="0.99" d="M45.1996 97.8322C45.5051 97.8322 45.7527 97.5845 45.7527 97.2791C45.7527 96.9736 45.5051 96.726 45.1996 96.726C44.8941 96.726 44.6465 96.9736 44.6465 97.2791C44.6465 97.5845 44.8941 97.8322 45.1996 97.8322Z" fill="#63BBFB"/>
<path d="M58.995 89.7726H48.7347C48.4293 89.7726 48.1816 90.0203 48.1816 90.3258C48.1816 90.6312 48.4293 90.8789 48.7347 90.8789H58.995C59.3004 90.8789 59.5481 90.6312 59.5481 90.3258C59.5481 90.0203 59.3004 89.7726 58.995 89.7726Z" fill="#63BBFB"/>
<path d="M58.5614 93.3079H48.3012C47.9957 93.3079 47.748 93.5555 47.748 93.861C47.748 94.1664 47.9957 94.4141 48.3012 94.4141H58.5614C58.8669 94.4141 59.1145 94.1664 59.1145 93.861C59.1145 93.5555 58.8669 93.3079 58.5614 93.3079Z" fill="#63BBFB"/>
<path d="M51.7012 96.726H47.8558C47.5504 96.726 47.3027 96.9736 47.3027 97.2791C47.3027 97.5845 47.5504 97.8322 47.8558 97.8322H51.7012C52.0067 97.8322 52.2543 97.5845 52.2543 97.2791C52.2543 96.9736 52.0067 96.726 51.7012 96.726Z" fill="#63BBFB"/>
<path d="M65.6003 96.7178L64.9912 96.5718L64.9297 95.705L71.8922 85.4509C71.9626 85.3472 72.0551 85.2602 72.1631 85.1963C72.271 85.1324 72.3917 85.0932 72.5166 85.0814C72.6415 85.0696 72.7675 85.0855 72.8855 85.1281C73.0035 85.1706 73.1106 85.2387 73.1992 85.3275L75.7962 87.9243L85.071 76.9203L85.9302 77.6447L76.4645 88.8752C76.3884 88.9653 76.2945 89.0386 76.1887 89.0906C76.0829 89.1425 75.9674 89.172 75.8496 89.177C75.7318 89.182 75.6142 89.1626 75.5044 89.1198C75.3945 89.0771 75.2947 89.012 75.2112 88.9287L72.6371 86.3544L65.6003 96.7178Z" fill="#07FBFD"/>
<path d="M85.5231 96.91C85.5225 97.1311 85.4344 97.3429 85.278 97.4992C85.1217 97.6556 84.9099 97.7437 84.6888 97.7443H63.9543C63.9203 97.7443 63.8867 97.7374 63.8556 97.7238C63.8244 97.7103 63.7964 97.6904 63.7733 97.6656C63.7502 97.6407 63.7324 97.6114 63.7211 97.5794C63.7098 97.5473 63.7052 97.5133 63.7077 97.4795L63.7639 96.6938L65.5011 75.9039C65.5154 75.7974 65.5702 75.7006 65.6541 75.6336C65.7381 75.5666 65.8447 75.5346 65.9517 75.5443L66.2823 75.5696C66.3938 75.598 66.4917 75.6649 66.5587 75.7584C66.6257 75.852 66.6575 75.9662 66.6485 76.0809L65.0079 96.3534C65.0052 96.3874 65.0095 96.4217 65.0206 96.454C65.0318 96.4862 65.0495 96.5159 65.0726 96.541C65.0958 96.5661 65.1239 96.5861 65.1551 96.5998C65.1864 96.6135 65.2202 96.6206 65.2544 96.6206H85.2338C85.3105 96.6206 85.3841 96.6511 85.4384 96.7053C85.4927 96.7596 85.5231 96.8332 85.5231 96.91Z" fill="#005ED0" stroke="#005ED0" stroke-miterlimit="10"/>
<path d="M85.3412 79.089L85.3036 78.2952C85.2997 78.2149 85.2788 78.1364 85.242 78.0649C85.2053 77.9934 85.1536 77.9307 85.0906 77.8808C85.0275 77.831 84.9545 77.7953 84.8764 77.7761C84.7984 77.757 84.7171 77.7548 84.6382 77.7697L83.7911 77.9295C83.7186 77.9432 83.6441 77.9424 83.5719 77.9273C83.4996 77.9122 83.4311 77.883 83.3701 77.8414C83.3092 77.7998 83.257 77.7466 83.2167 77.6849C83.1763 77.6231 83.1485 77.554 83.1348 77.4815C83.1072 77.3351 83.1388 77.1834 83.2228 77.0604C83.3068 76.9373 83.4363 76.8526 83.5827 76.825L85.6996 76.4258C85.7786 76.4109 85.8599 76.4131 85.9379 76.4323C86.0159 76.4515 86.089 76.4872 86.152 76.537C86.2151 76.5869 86.2667 76.6496 86.3035 76.7211C86.3402 76.7926 86.3612 76.8711 86.365 76.9514L86.4636 79.0358C86.4706 79.1847 86.4183 79.3302 86.318 79.4404C86.2178 79.5506 86.0778 79.6165 85.929 79.6236C85.8553 79.6271 85.7816 79.616 85.7122 79.5911C85.6428 79.5661 85.5789 79.5277 85.5244 79.478C85.4698 79.4284 85.4255 79.3685 85.3941 79.3017C85.3626 79.235 85.3447 79.1627 85.3412 79.089Z" fill="#07FBFD"/>
<path d="M140 68.5C140 71.4449 137.135 74 134 74C131.065 74 129 71.6462 129 68.5C129 65.5551 131.865 63 135 63C137.935 63 140 65.3538 140 68.5Z" stroke="#17D9D8" stroke-width="2"/>
</g>
<defs>
<clipPath id="clip0">
<rect width="171" height="121.416" fill="white"/>
</clipPath>
</defs>
</svg>
