<svg width="18" height="14" viewBox="0 0 18 14" fill="none" xmlns="http://www.w3.org/2000/svg">
<path fill-rule="evenodd" clip-rule="evenodd" d="M6.74403 6.36377C6.1438 6.36377 5.51464 6.52122 4.8569 6.83597C4.19912 7.15066 3.67542 7.5468 3.28587 8.02412L0.0575102 11.9618L0.00966333 12.0211C0.00966333 11.9947 0.00798567 11.9532 0.00483167 11.8969C0.00164411 11.8405 0 11.799 0 11.7724V2.22724C0 1.61741 0.210681 1.09374 0.63221 0.656325C1.05374 0.21881 1.55828 0 2.14583 0H5.21125C5.7988 0 6.30334 0.218845 6.72487 0.656325C7.14637 1.0937 7.35708 1.61738 7.35708 2.22721V2.54538H12.5685C13.1561 2.54538 13.6605 2.76408 14.0821 3.20156C14.5037 3.63908 14.7145 4.16299 14.7145 4.77283V6.36377H6.74403ZM17.1667 7.63606C17.384 7.63606 17.5771 7.67931 17.7462 7.76561C17.9156 7.8518 18.0001 7.99424 18 8.19299C18 8.39881 17.9011 8.61737 17.7032 8.84942L14.4844 12.7868C14.2098 13.125 13.8251 13.4117 13.3302 13.647C12.8352 13.8823 12.3772 14 11.9558 14H1.53278C1.31559 14 1.12242 13.9569 0.953214 13.8706C0.784005 13.7846 0.69935 13.642 0.69935 13.4432C0.69935 13.2376 0.798366 13.0188 0.996397 12.7868L4.21516 8.84942C4.48969 8.51109 4.87451 8.22482 5.36942 7.98919C5.8643 7.7538 6.32254 7.63606 6.74403 7.63606H17.1667Z" fill="#005ED0"/>
</svg>
