<svg width="24" height="24" viewBox="0 0 24 24" fill="none" xmlns="http://www.w3.org/2000/svg">
<g opacity="0.2">
<path d="M12 24C18.6274 24 24 18.6274 24 12C24 5.37258 18.6274 0 12 0C5.37258 0 0 5.37258 0 12C0 18.6274 5.37258 24 12 24Z" fill="#D8D8D8"/>
<mask id="mask0" mask-type="alpha" maskUnits="userSpaceOnUse" x="0" y="0" width="24" height="24">
<path d="M12 24C18.6274 24 24 18.6274 24 12C24 5.37258 18.6274 0 12 0C5.37258 0 0 5.37258 0 12C0 18.6274 5.37258 24 12 24Z" fill="white"/>
</mask>
<g mask="url(#mask0)">
<path d="M12 0C18.6166 0 24 5.38343 24 12C24 18.617 18.6166 24 12 24C5.38303 24 0 18.617 0 12C0 5.38343 5.38303 0 12 0Z" fill="#333333"/>
<path d="M-0.998766 11.3822L12.6984 11.3434L9.30966 7.87208L10.161 7L15 11.9571L10.0765 17L9.22494 16.128L12.6925 12.5759L-1 12.6157C-1 12.6157 -1 11.3434 -0.998766 11.3822Z" fill="white"/>
</g>
</g>
</svg>
