<svg width="37" height="32" viewBox="0 0 37 32" fill="none" xmlns="http://www.w3.org/2000/svg">
<g opacity="0.8" clip-path="url(#clip0)">
<path d="M4.15945 27.6187L0 31.7194V23.5179L4.15945 27.6187Z" fill="white"/>
<path d="M8.61219 23.2293L4.44867 27.334L0.285156 23.2293H8.61219Z" fill="white"/>
<path d="M8.77408 14.1701V22.2433L4.67969 18.2067L8.77408 14.1701Z" fill="white"/>
<path d="M8.79055 22.8285H0V22.8205L4.39121 18.4913L8.79055 22.8285Z" fill="white"/>
<path d="M13.5485 18.363L9.18164 22.6681V14.0538L13.5485 18.363Z" fill="white"/>
<path d="M18.1344 13.8414L13.8368 18.0784L9.53906 13.8414H18.1344Z" fill="white"/>
<path d="M17.9383 13.4405H9.51367L13.726 9.28772L17.9383 13.4405Z" fill="white"/>
<path d="M18.2951 4.78217V13.2281L14.0137 9.00714L18.2951 4.78217Z" fill="white"/>
<path d="M18.5402 13.4406L18.528 13.4566L18.5117 13.4406H18.5402Z" fill="white"/>
<path d="M22.9358 9.10738L18.7031 13.2802V4.93451L22.9358 9.10738Z" fill="white"/>
<path d="M27.3558 4.14481H18.9434L23.1516 0L27.3558 4.14481Z" fill="white"/>
<path d="M27.5634 4.54565L23.2251 8.82274L18.8867 4.54565H27.5634Z" fill="white"/>
<path d="M18.0816 22.8285H9.58789L13.8327 18.6436L18.0816 22.8285Z" fill="white"/>
<path d="M18.2968 14.2422V22.4757L14.1211 18.359L18.2968 14.2422Z" fill="white"/>
<path d="M22.9276 18.359L18.7031 22.5239V14.1942L22.9276 18.359Z" fill="white"/>
<path d="M27.696 14.2222V22.4958L23.5 18.359L27.696 14.2222Z" fill="white"/>
<path d="M27.5112 13.8414L23.2176 18.0784L18.9199 13.8414H27.5112Z" fill="white"/>
<path d="M32.3524 9.07129L28.1035 13.2562V4.88239L32.3524 9.07129Z" fill="white"/>
<path d="M27.3307 13.4405H19.1094L23.22 9.38794L27.3307 13.4405Z" fill="white"/>
<path d="M27.6977 4.97461V13.2322L23.5098 9.10338L27.6977 4.97461Z" fill="white"/>
<path d="M27.9176 13.4406L27.9129 13.4453L27.9082 13.4406H27.9176Z" fill="white"/>
<path d="M32.2589 18.2948L28.1035 22.3916V14.2021L32.2589 18.2948Z" fill="white"/>
<path d="M36.7776 13.8414L32.549 18.0142L28.3164 13.8414H36.7776Z" fill="white"/>
<path d="M36.8581 22.8286H28.2383L32.5482 18.5795L36.8581 22.8286Z" fill="white"/>
<path d="M36.9994 14.1901V22.4036L32.8359 18.2989L36.9994 14.1901Z" fill="white"/>
<path d="M36.7847 13.4406H28.4902L32.6375 9.35187L36.7847 13.4406Z" fill="white"/>
<path d="M8.60406 32H0.285156L4.44461 27.8993L8.60406 32Z" fill="white"/>
<path d="M8.77396 23.6302V31.5991L4.73242 27.6147L8.77396 23.6302Z" fill="white"/>
<path d="M13.5932 27.5625L9.18164 31.9118V23.2293H9.1979L13.5932 27.5625Z" fill="white"/>
<path d="M18.0947 32H9.66602L13.8824 27.8472L18.0947 32Z" fill="white"/>
<path d="M17.9886 23.2293L13.882 27.2779L9.77539 23.2293H17.9886Z" fill="white"/>
<path d="M18.2968 23.4899V31.6312L14.1699 27.5626L18.2968 23.4899Z" fill="white"/>
<path d="M22.8707 27.5546L18.7031 31.6633V23.4418L22.8707 27.5546Z" fill="white"/>
<path d="M27.2534 23.2293L23.159 27.2699L19.0605 23.2293H27.2534Z" fill="white"/>
<path d="M27.3803 32H18.9395L23.1599 27.8391L27.3803 32Z" fill="white"/>
<path d="M27.6981 23.3616V31.7434L23.4492 27.5545L27.6981 23.3616Z" fill="white"/>
<path d="M36.7637 32H28.3594L32.5635 27.8592L36.7637 32Z" fill="white"/>
<path d="M32.2752 27.5746L28.1035 31.6833V23.4619L32.2752 27.5746Z" fill="white"/>
<path d="M36.679 23.2293L32.5602 27.2899L28.4414 23.2293H36.679Z" fill="white"/>
<path d="M37.0009 23.4819V31.6673L32.8496 27.5746L37.0009 23.4819Z" fill="white"/>
<path d="M8.7897 22.8285H8.77344V22.8125L8.7897 22.8285Z" fill="white"/>
<path d="M18.3457 13.8414H18.2969V13.7933L18.3457 13.8414Z" fill="white"/>
<path d="M18.5421 13.4406L18.5299 13.4566L18.5137 13.4406H18.5421Z" fill="white"/>
<path d="M18.3091 4.54566H18.2969V4.53363L18.3091 4.54566Z" fill="white"/>
<path d="M9.19384 22.6562L9.18164 22.6682V22.6442L9.19384 22.6562Z" fill="white"/>
<path d="M18.3457 13.8414H18.2969V13.7933L18.3457 13.8414Z" fill="white"/>
<path d="M18.5421 13.4406L18.5299 13.4566L18.5137 13.4406H18.5421Z" fill="white"/>
<path d="M27.9176 13.4406L27.9129 13.4453L27.9082 13.4406H27.9176Z" fill="white"/>
</g>
<defs>
<clipPath id="clip0">
<rect width="37" height="32" fill="white"/>
</clipPath>
</defs>
</svg>
