<svg width="32" height="30" viewBox="0 0 32 30" fill="none" xmlns="http://www.w3.org/2000/svg">
<path fill-rule="evenodd" clip-rule="evenodd" d="M29.3408 23.394L24.2459 20.7889C23.7653 20.5429 23.4667 20.0487 23.4667 19.4989V17.6547C23.5888 17.502 23.7173 17.328 23.8501 17.136C24.5109 16.1815 25.0405 15.1189 25.4256 13.9729C26.1781 13.62 26.6667 12.8591 26.6667 12V9.81818C26.6667 9.29291 26.4747 8.784 26.1333 8.38636V5.48509C26.1632 5.18509 26.2805 3.39927 25.0176 1.926C23.9221 0.648 22.1445 0 19.7333 0C17.3221 0 15.5445 0.648 14.4491 1.92545C13.6837 2.81836 13.4261 3.82418 13.3483 4.54636C12.4341 4.06309 11.3568 3.81818 10.1333 3.81818C4.59253 3.81818 4.26987 8.64818 4.26667 8.72727V11.2249C3.92107 11.61 3.73333 12.0545 3.73333 12.4958V14.3798C3.73333 14.9684 3.99093 15.5171 4.43253 15.888C4.87253 17.5844 5.95467 18.8662 6.376 19.3162V20.8124C6.376 21.2416 6.14773 21.6355 5.75147 21.8569L2.2032 24.1331C0.844267 24.8913 0 26.346 0 27.9289V30H7.46667H8.53333H32V27.7947C32 25.9195 30.9808 24.2329 29.3408 23.394ZM7.46667 27.6884V28.9091H1.06667V27.9289C1.06667 26.7453 1.69813 25.6576 2.74187 25.0745L6.2896 22.7984C7.00053 22.4018 7.44213 21.6415 7.44213 20.8124V18.8536L7.27253 18.6916C7.25867 18.6785 5.8416 17.3095 5.42293 15.4435L5.3744 15.2275L5.192 15.1075C4.94667 14.9449 4.8 14.6727 4.8 14.3798V12.4958C4.8 12.2995 4.93067 12.066 5.15787 11.8555L5.33333 11.6935L5.33227 8.75891C5.34187 8.60236 5.61973 4.90909 10.1333 4.90909C11.4096 4.90909 12.4843 5.21073 13.3333 5.80582V8.38636C12.992 8.784 12.8 9.29291 12.8 9.81818V12C12.8 12.1658 12.8187 12.3289 12.8539 12.4871C12.8627 12.526 12.877 12.5629 12.8913 12.5997C12.9003 12.6227 12.9092 12.6458 12.9168 12.6693C12.9242 12.6923 12.9312 12.7155 12.9382 12.7387L12.9382 12.7388L12.9382 12.7388C12.9591 12.8079 12.9799 12.8771 13.0107 12.942L13.0123 12.9447C13.1488 13.2327 13.3477 13.4902 13.5984 13.6958C13.5999 13.7015 13.6015 13.7069 13.6031 13.7123L13.6069 13.7253C13.6389 13.8502 13.6725 13.9745 13.7088 14.0962L13.752 14.2385C13.7566 14.254 13.7618 14.2696 13.767 14.2852L13.7765 14.3144L13.7891 14.3543L13.7892 14.3544C13.8035 14.3997 13.8177 14.4448 13.8325 14.4895C13.8645 14.5849 13.8981 14.6836 13.9371 14.7911C13.9464 14.8163 13.9562 14.8401 13.966 14.8639L13.966 14.8639C13.9737 14.8825 13.9813 14.9011 13.9888 14.9204C14.0325 15.0344 14.0763 15.1445 14.1221 15.2536C14.1275 15.2662 14.1325 15.2792 14.1375 15.2923C14.1429 15.3064 14.1483 15.3205 14.1541 15.3338L14.184 15.4025C14.1914 15.4194 14.1989 15.4353 14.2064 15.4511L14.2065 15.4513C14.2131 15.4652 14.2197 15.4791 14.2261 15.4936C14.2784 15.6104 14.3296 15.7233 14.3829 15.8324C14.3872 15.8411 14.3913 15.8502 14.3955 15.8594L14.3955 15.8594C14.3996 15.8685 14.4037 15.8776 14.408 15.8864C14.4341 15.9394 14.4603 15.9901 14.4864 16.0408L14.5088 16.0844C14.5664 16.1967 14.6229 16.3025 14.6795 16.4051C14.7072 16.4553 14.7344 16.5044 14.7616 16.5518C14.8384 16.686 14.9115 16.8093 14.9824 16.9238C14.9897 16.9354 14.9969 16.9473 15.004 16.959L15.0041 16.9591C15.0094 16.9678 15.0146 16.9764 15.0198 16.9847C15.0224 16.989 15.0251 16.9933 15.0277 16.9975C15.1568 17.202 15.2688 17.3678 15.3616 17.4971C15.379 17.5214 15.3947 17.5433 15.4099 17.5643C15.4161 17.5729 15.4222 17.5814 15.4283 17.5898C15.432 17.5948 15.4361 17.6005 15.4403 17.6064C15.4456 17.6137 15.451 17.6214 15.456 17.6284L15.4661 17.6427V19.4476C15.4661 19.9756 15.1845 20.46 14.7317 20.7131L13.3205 21.5002L13.0747 21.4778L12.9744 21.6933L9.97387 23.3673C8.4272 24.2313 7.46667 25.8862 7.46667 27.6884ZM8.53333 27.6884V28.9091H30.9333V27.7947C30.9333 26.3345 30.1403 25.0222 28.8635 24.3693L23.7685 21.7642C22.9243 21.3322 22.4 20.4644 22.4 19.4989V17.2489L22.5328 17.094C22.6667 16.9385 22.8208 16.7351 22.9792 16.5055C23.6256 15.5727 24.1339 14.5244 24.4907 13.3893L24.576 13.1193L24.8416 13.0358C25.2949 12.8929 25.6 12.4762 25.6 12V9.81818C25.6 9.51218 25.4731 9.22691 25.2427 9.01418L25.0667 8.85164L25.0715 5.38309C25.0715 5.3829 25.0715 5.38239 25.0716 5.38156C25.0773 5.32546 25.2292 3.81656 24.2059 2.63345C23.3211 1.60964 21.816 1.09091 19.7333 1.09091C17.6432 1.09091 16.1349 1.61345 15.2512 2.64491C14.3904 3.64909 14.3675 4.85618 14.3856 5.25L14.4 5.26145V5.45455V8.85164L14.224 9.01364C13.9936 9.22691 13.8667 9.51218 13.8667 9.81818V12C13.8667 12.3687 14.0512 12.7107 14.3605 12.9147L14.5424 13.0347L14.5909 13.2507C14.6315 13.4318 14.6795 13.608 14.7296 13.7804C14.7328 13.7918 14.7365 13.8027 14.7397 13.8136L14.7691 13.9107C14.8181 14.0705 14.8693 14.2255 14.9237 14.3738C14.9501 14.4466 14.9752 14.5112 14.9999 14.5746C15.0031 14.5829 15.0064 14.5913 15.0096 14.5996C15.0132 14.6087 15.0167 14.6179 15.0203 14.6271C15.0274 14.6454 15.0345 14.6636 15.0416 14.6815C15.0715 14.7551 15.1008 14.8265 15.1301 14.8947C15.1347 14.9054 15.1393 14.9159 15.144 14.9264C15.1487 14.9369 15.1533 14.9474 15.1579 14.958C15.224 15.1102 15.2917 15.2564 15.3595 15.3955C15.3595 15.396 15.36 15.3965 15.36 15.3965C15.4875 15.6556 15.6155 15.8896 15.736 16.0964C15.739 16.1017 15.742 16.1068 15.745 16.1118C15.7463 16.114 15.7475 16.1161 15.7488 16.1182C15.8053 16.2147 15.8608 16.3058 15.9131 16.3893C15.9144 16.3912 15.9156 16.3932 15.9168 16.3953C15.918 16.3973 15.9192 16.3994 15.9205 16.4013C16.0315 16.578 16.1312 16.7247 16.2107 16.8376L16.2123 16.8404C16.2501 16.8944 16.2832 16.9396 16.3115 16.9773C16.3152 16.9816 16.3184 16.986 16.3216 16.9904C16.3755 17.0624 16.4085 17.1033 16.4096 17.1049L16.4299 17.1295L16.5333 17.256V17.2565V19.4482C16.5333 20.3749 16.0389 21.2275 15.2427 21.672L10.4848 24.3262C9.28107 24.9971 8.53333 26.286 8.53333 27.6884Z" fill="white"/>
</svg>
