<svg width="900" height="660" viewBox="0 0 900 660" fill="none" xmlns="http://www.w3.org/2000/svg">
<path d="M563.222 440.109L574.336 528.906H571.243L559.285 440.109H563.222Z" fill="#63C3FB" stroke="#63C3FB" stroke-miterlimit="10"/>
<path fill-rule="evenodd" clip-rule="evenodd" d="M662.678 529C709.577 475.436 738 405.288 738 328.5C738 160.329 601.671 24 433.5 24C265.329 24 129 160.329 129 328.5C129 405.288 157.423 475.436 204.322 529H662.678Z" fill="#B3DBFB"/>
<circle cx="681" cy="160" r="53" fill="#FBC343"/>
<path d="M552.256 439.221L559.287 439.985L570.254 530.03H567.723L552.256 439.221Z" fill="#037BEB" stroke="#63C3FB" stroke-width="0.25" stroke-miterlimit="10"/>
<path d="M438.459 379.412H451.767L460.012 530.03H455.141L438.459 379.412Z" fill="#037BEB" stroke="#63C3FB" stroke-width="0.25" stroke-miterlimit="10"/>
<path d="M506.324 439.558L514.761 439.356L519.632 530.03H515.886L506.324 439.558Z" fill="#037BEB" stroke="#63C3FB" stroke-width="0.25" stroke-miterlimit="10"/>
<path d="M491.51 438.985H499.204L491.51 530.03H487.764L491.51 438.985Z" fill="#037BEB" stroke="#63C3FB" stroke-width="0.25" stroke-miterlimit="10"/>
<path d="M367.77 340.071L358.399 370.42H290.713V357.493L293.896 340.071H307.159L302.39 356.931H350.052L354.271 340.071H367.77Z" fill="#0B8BFB" stroke="#63C3FB" stroke-width="0.25" stroke-miterlimit="10"/>
<path d="M519.07 298.202L527.226 325.74H511.387L510.779 320.761L519.07 298.202Z" fill="#FBD36B"/>
<path d="M470.137 284.264L469.271 280.071C469.161 279.56 468.876 279.103 468.466 278.779C468.055 278.455 467.544 278.284 467.021 278.295C459.675 278.666 434.027 276.609 442.813 227.861L501.961 256.062C501.961 256.062 495.987 266.077 490.655 268.966C490.259 269.186 489.933 269.514 489.716 269.912C489.499 270.31 489.4 270.762 489.429 271.214L490.385 285.017L470.137 284.264Z" fill="#F7AF97"/>
<path d="M444.195 342.027C444.195 342.027 445.781 348.501 445.59 370.049H484.006L508.754 325.74C508.754 325.74 518.979 301.371 519.114 298.202C519.114 296.788 518.805 295.391 518.211 294.108C517.617 292.826 516.75 291.687 515.672 290.772C514.579 289.842 513.292 289.17 511.904 288.805C504.029 286.714 475.693 280.352 447.345 287.681L444.195 342.027Z" fill="#FBC343"/>
<path d="M325.585 370.611H583.753C584.295 370.609 584.831 370.715 585.332 370.921C585.833 371.127 586.288 371.429 586.672 371.812C587.055 372.194 587.36 372.648 587.567 373.148C587.775 373.648 587.882 374.183 587.882 374.725V375.849C587.882 376.943 587.447 377.992 586.672 378.766C585.898 379.539 584.848 379.974 583.753 379.974H197.109C196.014 379.974 194.964 379.539 194.19 378.766C193.415 377.992 192.98 376.943 192.98 375.849V374.725C192.983 373.632 193.42 372.586 194.194 371.815C194.968 371.044 196.016 370.611 197.109 370.611H325.585V370.611Z" stroke="#037BEB" stroke-miterlimit="10"/>
<path d="M325.586 370.611V379.929V379.974" stroke="#037BEB" stroke-miterlimit="10"/>
<path d="M588.512 374.657V375.871C588.574 377.032 588.172 378.169 587.397 379.035C586.621 379.901 585.534 380.424 584.372 380.491H325.586V370.049H584.384C585.541 370.118 586.623 370.641 587.397 371.504C588.17 372.367 588.571 373.5 588.512 374.657Z" fill="#63BBFB"/>
<path d="M445.592 370.049V392.9H482.163L484.008 370.049H445.592Z" fill="#FBC343"/>
<path d="M333.831 493.376L308.858 473.616C308.545 473.369 308.176 473.202 307.784 473.129C307.392 473.057 306.989 473.081 306.608 473.2L304.054 474.009C303.96 474.04 303.881 474.107 303.835 474.195C303.788 474.283 303.779 474.386 303.807 474.481L310.298 495.028C310.647 496.143 311.418 497.079 312.446 497.636C314.123 498.523 315.558 499.806 316.626 501.373C317.694 502.94 318.364 504.744 318.577 506.628C318.588 506.699 318.619 506.765 318.667 506.819L329.972 519.689C330.044 519.757 330.138 519.795 330.237 519.795C330.335 519.795 330.43 519.757 330.501 519.689L341.255 508.348L333.932 493.499C333.907 493.452 333.873 493.409 333.831 493.376Z" fill="#63C3FB"/>
<path d="M333.931 493.499L341.266 508.393L332.728 517.969C332.728 517.969 328.757 496.208 326.406 491.87C326.351 491.764 326.276 491.671 326.185 491.596C326.094 491.52 325.988 491.464 325.875 491.431C325.761 491.397 325.642 491.387 325.525 491.4C325.407 491.414 325.294 491.451 325.191 491.51C323.222 492.634 316.743 494.961 316.191 479.46L333.931 493.499Z" fill="#037BEB"/>
<path d="M321.962 483.923L319.51 486.418L320.86 487.216C320.913 487.248 320.959 487.291 320.996 487.341C321.032 487.391 321.059 487.448 321.073 487.508L321.433 488.913L324.673 486.137L321.962 483.923Z" fill="white"/>
<path d="M303.795 474.324L314.605 493.308L332.604 517.834C332.626 517.859 332.638 517.891 332.638 517.924C332.638 517.957 332.626 517.99 332.604 518.014L330.298 519.88C330.274 519.899 330.244 519.91 330.213 519.91C330.183 519.91 330.153 519.899 330.129 519.88L319.004 509.764C318.096 508.935 317.49 507.828 317.283 506.617C316.821 503.953 315.471 499.041 311.748 497.332C311.169 497.067 310.711 496.594 310.466 496.006L302.591 477.201C302.508 477.004 302.471 476.789 302.483 476.575C302.494 476.361 302.554 476.152 302.659 475.965L303.559 474.346C303.568 474.324 303.584 474.305 303.603 474.29C303.623 474.276 303.646 474.267 303.67 474.265C303.694 474.262 303.719 474.267 303.741 474.277C303.763 474.288 303.781 474.304 303.795 474.324Z" fill="white"/>
<path d="M336.507 492.229L333.953 493.353C333.953 493.353 331.242 506.043 341.265 508.336L345.157 504.459L336.507 492.229Z" fill="#F7AF97"/>
<path d="M446.097 505.65L419.493 523.634C419.212 523.824 418.982 524.08 418.823 524.38C418.664 524.68 418.581 525.015 418.582 525.354V528.614H442.576C443.89 526.854 445.68 525.506 447.735 524.729C449.79 523.953 452.024 523.779 454.174 524.23L470.328 517.104L463.579 501.761L462.949 501.907L446.097 505.65Z" fill="#63C3FB"/>
<path d="M446.323 505.684L463.59 501.795L469.147 514.159C469.147 514.159 447.189 511.394 442.341 512.327C442.224 512.347 442.113 512.39 442.014 512.454C441.915 512.518 441.83 512.601 441.764 512.699C441.698 512.796 441.652 512.906 441.629 513.022C441.607 513.138 441.607 513.257 441.632 513.372C442.104 515.62 442.419 522.364 427.48 518.138L446.323 505.684Z" fill="#037BEB"/>
<path d="M433.441 514.159L435.084 517.25L436.209 516.205C436.301 516.121 436.422 516.076 436.546 516.081L437.997 516.16L436.389 512.237L433.441 514.159Z" fill="white"/>
<path d="M422.328 528.344L440.192 524.028L469.158 514.193L470.283 517.171L455.513 524.556C455.513 524.556 446.098 523.432 442.577 528.636L422.328 528.344Z" fill="white"/>
<path d="M445.389 503.908L446.086 505.583C446.086 505.583 457.763 510.787 462.96 501.93L460.71 497.995L445.389 503.908Z" fill="#F7AF97"/>
<path d="M445.22 392.9H399.897C397.416 392.894 395.017 393.789 393.147 395.418L392.562 395.924C390.67 397.587 389.467 399.895 389.188 402.398L389.075 403.443C388.846 405.536 389.283 407.648 390.324 409.479L444.162 504.301L462.026 498.265L439.246 436.669C438.692 435.138 438.516 433.496 438.733 431.883C438.95 430.27 439.553 428.732 440.492 427.402C441.431 426.071 442.677 424.986 444.124 424.24C445.572 423.493 447.179 423.107 448.808 423.113H489.631L482.094 392.889H445.22V392.9Z" fill="#FBD36B"/>
<path d="M403.203 392.9C403.203 392.9 384.44 395.496 446.411 503.503L444.161 504.312L391.752 412.008C391.752 412.008 386.892 404.702 390.267 398.891C393.642 393.08 398.344 392.9 398.344 392.9H403.215H403.203Z" fill="#FBB333"/>
<path d="M397.648 340.071H271.298C269.333 340.071 267.43 339.384 265.918 338.13C264.406 336.876 263.38 335.133 263.018 333.203L241.42 218.722C241.19 217.506 241.231 216.254 241.541 215.055C241.851 213.856 242.421 212.741 243.212 211.788C244.003 210.834 244.994 210.067 246.115 209.541C247.236 209.014 248.46 208.741 249.699 208.741H376.049C378.014 208.742 379.917 209.428 381.429 210.682C382.941 211.936 383.967 213.679 384.329 215.609L405.927 330.09C406.157 331.306 406.116 332.559 405.806 333.757C405.496 334.956 404.926 336.072 404.135 337.025C403.344 337.978 402.353 338.745 401.232 339.272C400.111 339.798 398.887 340.071 397.648 340.071Z" fill="#138BF3" stroke="#63C3FB" stroke-width="0.25" stroke-miterlimit="10"/>
<path d="M394.688 330.146H277.9C277.072 330.145 276.269 329.857 275.631 329.33C274.993 328.802 274.558 328.07 274.401 327.257L254.4 223.466C254.303 222.951 254.32 222.421 254.45 221.914C254.581 221.407 254.822 220.935 255.156 220.532C255.49 220.128 255.909 219.803 256.383 219.58C256.857 219.356 257.375 219.24 257.899 219.239H375.126C375.956 219.241 376.759 219.531 377.398 220.06C378.036 220.59 378.47 221.325 378.624 222.139L398.142 325.92C398.239 326.431 398.222 326.956 398.094 327.46C397.966 327.964 397.729 328.434 397.4 328.837C397.071 329.24 396.658 329.565 396.189 329.792C395.721 330.018 395.208 330.139 394.688 330.146Z" fill="white" stroke="white" stroke-miterlimit="10"/>
<path d="M378.308 314.932L378.473 318.233L375.12 318.058C375.01 316.335 376.174 314.892 377.996 314.905C378.052 314.905 378.308 314.932 378.308 314.932Z" fill="#02FDFD"/>
<path d="M379.659 319.444L379.438 315.039C380.563 315.17 381.607 315.691 382.387 316.512C383.167 317.333 383.635 318.402 383.708 319.532C383.752 320.077 383.679 320.625 383.492 321.139C383.306 321.653 383.011 322.121 382.629 322.511C382.246 322.901 381.783 323.204 381.273 323.4C380.763 323.596 380.216 323.68 379.67 323.646C378.52 323.566 377.436 323.078 376.614 322.269C375.793 321.461 375.287 320.385 375.189 319.236L379.659 319.444Z" fill="#02DAD8"/>
<path d="M313.082 231H267.609C267.273 231 267 231.273 267 231.609V231.609C267 231.945 267.273 232.217 267.609 232.217H313.082C313.418 232.217 313.69 231.945 313.69 231.609C313.69 231.273 313.418 231 313.082 231Z" fill="#005ED0"/>
<path d="M359.082 278H313.609C313.273 278 313 278.273 313 278.609V278.609C313 278.945 313.273 279.217 313.609 279.217H359.082C359.418 279.217 359.69 278.945 359.69 278.609C359.69 278.273 359.418 278 359.082 278Z" fill="#005ED0"/>
<path d="M370.082 316H324.609C324.273 316 324 316.273 324 316.609V316.609C324 316.945 324.273 317.217 324.609 317.217H370.082C370.418 317.217 370.69 316.945 370.69 316.609C370.69 316.273 370.418 316 370.082 316Z" fill="#005ED0"/>
<path d="M303.273 234.605H268.609C268.273 234.605 268 234.878 268 235.214V235.214C268 235.55 268.273 235.823 268.609 235.823H303.273C303.609 235.823 303.881 235.55 303.881 235.214C303.881 234.878 303.609 234.605 303.273 234.605Z" fill="#63BBFB"/>
<path d="M349.273 283H314.609C314.273 283 314 283.273 314 283.609V283.609C314 283.945 314.273 284.217 314.609 284.217H349.273C349.609 284.217 349.881 283.945 349.881 283.609C349.881 283.273 349.609 283 349.273 283Z" fill="#63BBFB"/>
<path d="M350.273 286H315.609C315.273 286 315 286.273 315 286.609V286.609C315 286.945 315.273 287.217 315.609 287.217H350.273C350.609 287.217 350.881 286.945 350.881 286.609C350.881 286.273 350.609 286 350.273 286Z" fill="#63BBFB"/>
<path d="M351.273 289H316.609C316.273 289 316 289.273 316 289.609V289.609C316 289.945 316.273 290.217 316.609 290.217H351.273C351.609 290.217 351.881 289.945 351.881 289.609C351.881 289.273 351.609 289 351.273 289Z" fill="#63BBFB"/>
<path d="M293.644 238H269.609C269.273 238 269 238.273 269 238.609V238.609C269 238.945 269.273 239.217 269.609 239.217H293.644C293.98 239.217 294.252 238.945 294.252 238.609C294.252 238.273 293.98 238 293.644 238Z" fill="#005ED0"/>
<path d="M370.644 320H346.609C346.273 320 346 320.273 346 320.609V320.609C346 320.945 346.273 321.217 346.609 321.217H370.644C370.98 321.217 371.252 320.945 371.252 320.609C371.252 320.273 370.98 320 370.644 320Z" fill="#005ED0"/>
<path d="M325.573 370.127V380.356H196.781C195.638 380.301 194.563 379.798 193.789 378.956C193.014 378.115 192.602 377.003 192.642 375.86V374.68C192.599 373.536 193.01 372.422 193.785 371.58C194.561 370.738 195.637 370.236 196.781 370.184H325.573V370.127Z" fill="#037BEB" stroke="#63C3FB" stroke-width="0.25" stroke-miterlimit="10"/>
<path d="M227.346 380.356H239.529L213.656 530.03H208.785L227.346 380.356Z" fill="#037BEB" stroke="#63C3FB" stroke-width="0.25" stroke-miterlimit="10"/>
<path d="M329.906 380.536H341.897L328.398 530.03H323.527L329.906 380.536Z" fill="#037BEB" stroke="#63C3FB" stroke-width="0.25" stroke-miterlimit="10"/>
<path d="M435.546 440.109H443.331L427.391 530.03H424.398L435.546 440.109Z" fill="#037BEB" stroke="#63C3FB" stroke-width="0.25" stroke-miterlimit="10"/>
<path d="M235.31 338.385H235.029V335.013H207.84V365.553C207.84 366.745 208.314 367.889 209.158 368.732C210.002 369.575 211.146 370.049 212.34 370.049H230.529C231.723 370.049 232.867 369.575 233.711 368.732C234.555 367.889 235.029 366.745 235.029 365.553V358.415H235.31C237.969 358.415 240.518 357.36 242.398 355.482C244.277 353.604 245.333 351.056 245.333 348.4C245.333 345.744 244.277 343.197 242.398 341.318C240.518 339.44 237.969 338.385 235.31 338.385ZM235.31 353.885H235.029V342.881H235.31C236.777 342.881 238.183 343.463 239.22 344.499C240.257 345.535 240.839 346.941 240.839 348.406C240.839 349.871 240.257 351.276 239.22 352.312C238.183 353.348 236.777 353.93 235.31 353.93V353.885Z" fill="#037BEB" stroke="#63C3FB" stroke-width="0.25" stroke-miterlimit="10"/>
<path d="M572.796 439.715C572.222 439.983 571.595 440.118 570.962 440.109H420.921C418.901 440.097 416.968 439.286 415.545 437.853C414.122 436.421 413.325 434.484 413.328 432.465V430.442C413.425 428.486 414.264 426.641 415.675 425.282C417.086 423.922 418.962 423.151 420.921 423.125H480.947C481.226 423.124 481.501 423.057 481.749 422.928C481.997 422.8 482.211 422.614 482.373 422.387C482.534 422.159 482.639 421.896 482.679 421.62C482.719 421.344 482.692 421.062 482.6 420.798C482.437 420.308 482.346 419.797 482.33 419.281C478.854 323.256 505.009 325.751 505.009 325.751H578.421C578.51 325.746 578.601 325.746 578.69 325.751H585.44C585.784 325.753 586.124 325.822 586.44 325.955C586.757 326.088 587.045 326.282 587.286 326.527C587.528 326.771 587.718 327.061 587.847 327.379C587.977 327.697 588.041 328.038 588.039 328.381C588.037 329.133 587.766 329.859 587.274 330.427C586.723 330.858 586.103 331.192 585.44 331.416C567.993 340.206 563.032 359.944 563.032 379.524C563.032 396.677 566.8 413.739 569.331 423.26C569.444 423.698 569.556 424.125 569.68 424.53C569.871 425.305 570.062 425.946 570.231 426.531C570.4 427.115 570.591 427.722 570.726 428.239C571.158 429.624 572.11 430.787 573.381 431.487C573.976 431.841 574.468 432.345 574.808 432.949C575.148 433.553 575.323 434.235 575.316 434.927V435.781C575.321 435.89 575.321 435.999 575.316 436.107C575.212 436.925 574.899 437.703 574.406 438.365C573.913 439.026 573.258 439.55 572.503 439.884" fill="#037BEB"/>
<path d="M572.796 439.715C572.222 439.983 571.595 440.118 570.962 440.109H420.921C418.901 440.097 416.968 439.286 415.545 437.853C414.122 436.421 413.325 434.484 413.328 432.465V430.442C413.425 428.486 414.264 426.641 415.675 425.282C417.086 423.922 418.962 423.151 420.921 423.125H480.947C481.226 423.124 481.501 423.057 481.749 422.928C481.997 422.8 482.211 422.614 482.373 422.387C482.534 422.159 482.639 421.896 482.679 421.62C482.719 421.344 482.692 421.062 482.6 420.798C482.437 420.308 482.346 419.797 482.33 419.281C478.854 323.256 505.009 325.751 505.009 325.751H578.421C578.51 325.746 578.601 325.746 578.69 325.751H585.44C585.784 325.753 586.124 325.822 586.44 325.955C586.757 326.088 587.045 326.282 587.286 326.527C587.528 326.771 587.718 327.061 587.847 327.379C587.977 327.697 588.041 328.038 588.039 328.381C588.037 329.133 587.766 329.859 587.274 330.427C586.723 330.858 586.103 331.192 585.44 331.416C567.993 340.206 563.032 359.944 563.032 379.524C563.032 396.677 566.8 413.739 569.331 423.26C569.444 423.698 569.556 424.125 569.68 424.53C569.871 425.305 570.062 425.946 570.231 426.531C570.4 427.115 570.591 427.722 570.726 428.239C571.158 429.624 572.11 430.787 573.381 431.487C573.976 431.841 574.468 432.345 574.808 432.949C575.148 433.553 575.323 434.235 575.316 434.927V435.781C575.321 435.89 575.321 435.999 575.316 436.107C575.212 436.925 574.899 437.703 574.406 438.365C573.913 439.026 573.258 439.55 572.503 439.884" stroke="#63C3FB" stroke-width="0.25" stroke-miterlimit="10"/>
<path d="M341.896 359.022V357.246C341.897 357.143 341.918 357.041 341.958 356.947C341.999 356.852 342.058 356.767 342.133 356.695L351.762 347.4C351.901 347.28 352.079 347.213 352.263 347.213C352.446 347.213 352.624 347.28 352.763 347.4L365.52 357.415C365.643 357.509 365.792 357.564 365.947 357.572L369.322 357.774V368.385H356.239C356.054 368.384 355.873 368.44 355.72 368.544C355.568 368.649 355.45 368.797 355.384 368.97L355.193 369.475C355.129 369.643 355.017 369.788 354.871 369.891C354.725 369.995 354.551 370.054 354.372 370.06H353.461C353.305 370.065 353.152 370.022 353.021 369.938C352.891 369.854 352.789 369.731 352.729 369.588L352.021 367.868C351.963 367.73 351.867 367.611 351.743 367.527C351.619 367.444 351.473 367.398 351.323 367.396H348.466C348.274 367.394 348.091 367.32 347.951 367.189C347.812 367.057 347.726 366.879 347.712 366.688L347.521 363.844C347.508 363.661 347.429 363.488 347.299 363.358C347.169 363.228 346.996 363.149 346.812 363.136L344.889 363.012C344.709 363 344.539 362.924 344.409 362.799C344.279 362.673 344.198 362.506 344.18 362.327L344.034 360.764C344.014 360.539 343.911 360.328 343.745 360.175C343.578 360.021 343.361 359.934 343.134 359.933H342.796C342.557 359.93 342.328 359.832 342.159 359.662C341.991 359.492 341.896 359.262 341.896 359.022Z" fill="#F7AF97"/>
<path d="M369.322 356.167H417.525C419.323 356.184 421.094 355.723 422.654 354.83C422.913 354.69 423.152 354.517 423.363 354.313C424.052 353.103 424.575 351.806 424.916 350.457L440.889 292.863C441.189 291.764 441.758 290.756 442.543 289.93C443.328 289.104 444.306 288.486 445.389 288.13C446.84 287.66 448.393 287.602 449.875 287.964C451.357 288.325 452.71 289.091 453.781 290.176C454.375 290.777 454.812 291.515 455.053 292.324C455.295 293.134 455.333 293.991 455.165 294.818C453.005 305.519 444.793 345.028 438.774 358.471C437.256 361.307 435.249 363.852 432.846 365.991C430.291 367.838 427.421 369.206 424.376 370.026C409.56 369.903 369.345 370.026 369.345 370.026V356.167H369.322Z" fill="#FBD36B"/>
<path d="M402.18 430.386L334.021 490.408L344.708 505.583L417.265 456.935L402.18 430.386Z" fill="#FBC343"/>
<path d="M444.196 250.431C444.196 250.431 441.159 242.765 443.633 237.403C443.785 237.062 443.863 236.692 443.863 236.319C443.863 235.945 443.785 235.576 443.633 235.234C442.07 231.536 438.088 219.577 446.704 209.438C447.083 208.996 447.335 208.46 447.436 207.887C448.009 204.605 451.047 192.904 465.434 192.544C465.475 192.543 465.516 192.556 465.549 192.579C465.583 192.603 465.608 192.637 465.62 192.676C465.633 192.715 465.633 192.758 465.619 192.797C465.606 192.836 465.581 192.869 465.547 192.892C464.287 193.713 461.328 195.826 461.328 197.602C461.328 199.794 475.423 191.566 481.116 194.803C481.16 194.83 481.196 194.868 481.222 194.914C481.247 194.959 481.26 195.01 481.26 195.062C481.26 195.114 481.247 195.165 481.222 195.21C481.196 195.255 481.16 195.293 481.116 195.32C479.901 196.051 476.616 198.232 478.483 199.816C480.733 201.761 484.592 192.274 496.077 199.356C496.108 199.373 496.133 199.4 496.148 199.433C496.163 199.466 496.166 199.503 496.159 199.538C496.151 199.573 496.133 199.605 496.106 199.628C496.079 199.652 496.045 199.667 496.009 199.67C494.12 199.884 487.561 200.794 489.732 203.458C492.218 206.504 503.974 197.568 507.832 213.35C507.853 213.444 507.855 213.542 507.836 213.638C507.818 213.733 507.78 213.823 507.725 213.904C507.671 213.984 507.6 214.052 507.518 214.103C507.435 214.155 507.343 214.189 507.247 214.204C506.28 214.35 504.851 214.743 505.976 215.811C507.596 217.362 521.939 234.504 501.128 257.119C480.317 279.734 451.35 237.033 448.538 237.033C445.726 237.033 443.42 241.304 444.196 250.431Z" fill="#4B3353"/>
<path d="M437.335 423.125L427.582 412.008L450.834 423.125" fill="#FBB333"/>
<path d="M618.907 528.906L614.666 484.676C614.633 484.334 614.672 483.99 614.78 483.664C614.888 483.338 615.063 483.039 615.294 482.785C615.525 482.531 615.807 482.328 616.121 482.189C616.435 482.05 616.775 481.978 617.118 481.978H657.536C657.88 481.978 658.219 482.05 658.533 482.189C658.847 482.328 659.129 482.531 659.36 482.785C659.591 483.039 659.766 483.338 659.874 483.664C659.983 483.99 660.021 484.334 659.989 484.676L655.748 528.906H618.907Z" fill="#037BEB" stroke="#63C3FB" stroke-width="0.25" stroke-miterlimit="10"/>
<path d="M631.921 466.411C631.921 466.411 630.999 467.647 628.749 464.163C626.499 460.678 618.816 448.426 608.782 445.942C598.748 443.458 596.689 440.884 594.349 438.265C592.009 435.646 586.666 418.685 605.88 422.338C625.093 425.991 631.921 438.726 631.921 438.726C632.372 433.181 634.034 427.803 636.79 422.969C639.546 418.136 643.329 413.964 647.873 410.749C663.43 399.7 668.549 400.217 668.549 400.217C668.549 400.217 674.646 400.734 678.11 404.016C681.575 407.299 680.597 413.807 680.597 413.807C680.597 413.807 680.315 418.775 673.847 422.608C667.379 426.441 653.79 429.914 645.814 448.831C645.814 448.831 661.653 438.715 665.691 446.111C669.73 453.507 658.706 457.891 658.706 457.891C658.706 457.891 648.165 461.128 645.915 465.343C643.666 469.558 644.093 469.839 643.036 470.828C642.904 470.963 642.746 471.069 642.572 471.142C642.398 471.215 642.212 471.253 642.023 471.253C641.835 471.253 641.648 471.215 641.474 471.142C641.3 471.069 641.143 470.963 641.011 470.828L638.041 469.356L638.603 458.115C638.603 458.115 634.812 466.59 631.921 466.411Z" fill="#FBD36B"/>
<path d="M634.373 481.978C634.373 481.978 635.588 456.407 611.178 434.489C611.178 434.489 628.479 440.109 635.296 469.333C635.296 469.333 640.144 426.767 658.705 419.46C658.705 419.46 639.447 433.657 638.603 472.997C638.603 472.997 642.968 454.035 653.092 451.787C653.092 451.787 639.177 459.801 640.156 482.001H634.373V481.978Z" fill="#037BEB" stroke="#63C3FB" stroke-width="0.25" stroke-miterlimit="10"/>
<path d="M268 250H379L384 275H273L268 250Z" fill="#63BBFB"/>
<path d="M274 278H304.609L310 303H279L274 278Z" fill="#63BBFB"/>
<circle r="22" transform="matrix(-1 0 0 1 542 163)" fill="#037BEB"/>
<circle cx="464.5" cy="37.5" r="37.5" fill="white"/>
<circle r="31" transform="matrix(-1 0 0 1 642 37)" fill="#63BBFB"/>
</svg>
