<svg width="20" height="20" viewBox="0 0 20 20" fill="none" xmlns="http://www.w3.org/2000/svg">
<path fill-rule="evenodd" clip-rule="evenodd" d="M14.6469 13.831L19.8106 18.9123C20.0632 19.1611 20.0632 19.565 19.81 19.8138C19.5575 20.0626 19.1474 20.0626 18.8948 19.8138L13.711 14.7125C12.2644 15.8672 10.4227 16.5617 8.41464 16.5617C3.76721 16.5617 0 12.8545 0 8.28085C0 3.70717 3.76721 0 8.41464 0C13.0621 0 16.8293 3.70717 16.8299 8.28085C16.8299 10.4189 15.9991 12.3619 14.6469 13.831ZM1.29471 8.28085C1.29471 12.1506 4.4824 15.2876 8.41464 15.2876C12.3469 15.2876 15.5346 12.1506 15.5346 8.28085C15.5346 4.4111 12.3469 1.27406 8.41464 1.27406C4.4824 1.27406 1.29471 4.4111 1.29471 8.28085Z" fill="#FF6100"/>
</svg>
