<svg width="16" height="16" viewBox="0 0 16 16" fill="none" xmlns="http://www.w3.org/2000/svg">
<path d="M15.9859 6.08941C15.9521 5.9806 15.8625 5.90125 15.7545 5.88472L10.5736 5.09454L8.25669 0.167714C8.20857 0.0649216 8.10891 0 8.00008 0C7.89125 0 7.7913 0.0649216 7.74347 0.167714L5.42625 5.09484L0.245377 5.88502C0.137407 5.90156 0.0480517 5.9806 0.0139707 6.08971C-0.0195374 6.19821 0.00824285 6.31783 0.0864285 6.39748L3.83562 10.2327L2.95037 15.6482C2.93204 15.7609 2.97615 15.8748 3.06407 15.9422C3.15257 16.0101 3.2697 16.0188 3.36564 15.965L8.00008 13.4084L12.6339 15.965C12.6758 15.9882 12.7219 15.9996 12.7674 15.9996C12.8267 15.9996 12.8857 15.9803 12.9358 15.9422C13.024 15.8748 13.0681 15.7609 13.0495 15.6482L12.1645 10.233L15.9137 6.39748C15.9916 6.31723 16.0197 6.19791 15.9859 6.08941Z" fill="#FF6100"/>
</svg>
