<svg width="32" height="32" viewBox="0 0 32 32" fill="none" xmlns="http://www.w3.org/2000/svg">
<path d="M31.5 16C31.5 24.5604 24.5604 31.5 16 31.5C7.43959 31.5 0.5 24.5604 0.5 16C0.5 7.43959 7.43959 0.5 16 0.5C24.5604 0.5 31.5 7.43959 31.5 16Z" stroke="#005ED0"/>
<path fill-rule="evenodd" clip-rule="evenodd" d="M15.82 11.3C14.8333 11.3 14.0133 11.7267 13.36 12.58L12 11.04C12.3733 10.4267 12.9133 9.93334 13.62 9.56C14.3267 9.18666 15.1067 9 15.96 9C17.2667 9 18.2867 9.34 19.02 10.02C19.78 10.6867 20.16 11.52 20.16 12.52C20.16 13.4 19.9867 14.11 19.64 14.65C19.2933 15.19 18.8067 15.7133 18.18 16.22C18.1 16.2867 17.9967 16.3733 17.87 16.48C17.7433 16.5867 17.6433 16.67 17.57 16.73C17.4967 16.79 17.4033 16.8733 17.29 16.98C17.1767 17.0867 17.0933 17.17 17.04 17.23C16.9867 17.29 16.9167 17.3767 16.83 17.49C16.7433 17.6033 16.6867 17.7 16.66 17.78C16.6333 17.86 16.5967 17.9667 16.55 18.1C16.5033 18.2333 16.49 18.3533 16.51 18.46C16.53 18.5667 16.54 18.7 16.54 18.86L14.44 18.88C14.36 18.3867 14.3567 17.95 14.43 17.57C14.5033 17.19 14.67 16.8433 14.93 16.53C15.19 16.2167 15.4033 15.99 15.57 15.85C15.7367 15.71 16.0067 15.5 16.38 15.22C17.26 14.6067 17.7 13.8733 17.7 13.02C17.7 12.54 17.52 12.1333 17.16 11.8C16.8 11.4667 16.3533 11.3 15.82 11.3ZM14 21.72C14 21.3333 14.15 20.99 14.45 20.69C14.75 20.39 15.1267 20.24 15.58 20.24C15.9933 20.24 16.3433 20.39 16.63 20.69C16.9167 20.99 17.06 21.3333 17.06 21.72C17.06 22.16 16.92 22.5367 16.64 22.85C16.36 23.1633 16.0067 23.32 15.58 23.32C15.1267 23.32 14.75 23.1633 14.45 22.85C14.15 22.5367 14 22.16 14 21.72Z" fill="#005ED0"/>
</svg>
