<svg width="30" height="48" viewBox="0 0 30 48" fill="none" xmlns="http://www.w3.org/2000/svg">
<path fill-rule="evenodd" clip-rule="evenodd" d="M7.89474 9.93103H22.1053C22.8947 9.93103 23.6842 9.26896 23.6842 8.27586V6.62069C23.6842 5.62759 23.0526 4.96552 22.1053 4.96552H18.9474V3.31034C18.9474 1.48961 17.5263 0 15.7895 0H14.2105C12.4736 0 11.0526 1.48961 11.0526 3.31034V4.96552H7.89474C7.1053 4.96552 6.31579 5.62759 6.31579 6.62069V8.27586C6.31579 9.26896 6.94737 9.93103 7.89474 9.93103ZM15 3.31034C15.4736 3.31034 15.7894 3.64138 15.7894 4.13789C15.7894 4.6344 15.4736 4.96543 15 4.96543C14.5263 4.96543 14.2105 4.6344 14.2105 4.13789C14.2105 3.64138 14.5263 3.31034 15 3.31034ZM25.2632 6.62069H26.8421C28.5789 6.62069 30 8.1103 30 9.93104V44.6897C30 46.5103 28.5789 48 26.8421 48H3.15789C1.42101 48 0 46.5103 0 44.6897V9.93104C0 8.1103 1.42101 6.62069 3.15789 6.62069H4.73684V8.27586C4.73684 10.0966 6.15785 11.5862 7.89474 11.5862H22.1053C23.8421 11.5862 25.2632 10.0966 25.2632 8.27586V6.62069ZM13.4211 36.9103L12.3158 38.069L9.47368 35.0897L6.63158 38.069L5.52627 36.9103L8.36838 33.931L5.52627 30.9517L6.63158 29.793L9.47368 32.7723L12.3158 29.7931L13.4211 30.9518L10.579 33.9311L13.4211 36.9103ZM17.3684 40.5518C17.3684 42.869 19.1052 44.6897 21.3157 44.6897C23.5264 44.6897 25.2632 42.869 25.2632 40.5517C25.2632 38.4 23.8421 36.7448 22.1053 36.4138V32.1103L9.00004 18.2069H14.2105V16.5517H6.31579V24.8277H7.89474V19.3656L20.5263 32.607V36.4139C18.7895 36.9104 17.3684 38.5656 17.3684 40.5518ZM26.0527 23.6689L24.9474 24.8276L22.1053 21.8483L19.2632 24.8276L18.1579 23.6689L21 20.6896L18.1579 17.7103L19.2632 16.5516L22.1053 19.5309L24.9474 16.5517L26.0527 17.7104L23.2106 20.6897L26.0527 23.6689ZM23.6842 40.5517C23.6842 41.9229 22.6238 43.0345 21.3157 43.0345C20.0077 43.0345 18.9473 41.9229 18.9473 40.5517C18.9473 39.1805 20.0077 38.0689 21.3157 38.0689C22.6238 38.0689 23.6842 39.1805 23.6842 40.5517Z" fill="white"/>
</svg>
